<mxfile host="app.diagrams.net" modified="2024-04-21T23:47:39.086Z" agent="Mozilla/5.0 (Macintosh; Intel Mac OS X 10_15_7) AppleWebKit/537.36 (KHTML, like Gecko) Chrome/124.0.0.0 Safari/537.36" etag="xq20tWIOcRvfV1GjvuWG" version="24.2.7" type="device">
  <diagram name="Page-1" id="TUnBYzFRi8hMra1r6Kyd">
    <mxGraphModel dx="1754" dy="615" grid="1" gridSize="10" guides="1" tooltips="1" connect="1" arrows="1" fold="1" page="1" pageScale="1" pageWidth="850" pageHeight="1100" math="0" shadow="0">
      <root>
        <mxCell id="0" />
        <mxCell id="1" parent="0" />
        <mxCell id="IstfAL_K2qUrRpmHLglD-3" value="" style="edgeStyle=orthogonalEdgeStyle;rounded=0;orthogonalLoop=1;jettySize=auto;html=1;" edge="1" parent="1" source="IstfAL_K2qUrRpmHLglD-1" target="IstfAL_K2qUrRpmHLglD-2">
          <mxGeometry relative="1" as="geometry" />
        </mxCell>
        <mxCell id="IstfAL_K2qUrRpmHLglD-5" value="" style="edgeStyle=orthogonalEdgeStyle;rounded=0;orthogonalLoop=1;jettySize=auto;html=1;" edge="1" parent="1" source="IstfAL_K2qUrRpmHLglD-1" target="IstfAL_K2qUrRpmHLglD-4">
          <mxGeometry relative="1" as="geometry" />
        </mxCell>
        <mxCell id="IstfAL_K2qUrRpmHLglD-1" value="Fisioterapia" style="rounded=0;whiteSpace=wrap;html=1;" vertex="1" parent="1">
          <mxGeometry x="290" y="80" width="120" height="60" as="geometry" />
        </mxCell>
        <mxCell id="IstfAL_K2qUrRpmHLglD-7" value="" style="edgeStyle=orthogonalEdgeStyle;rounded=0;orthogonalLoop=1;jettySize=auto;html=1;" edge="1" parent="1" source="IstfAL_K2qUrRpmHLglD-2" target="IstfAL_K2qUrRpmHLglD-6">
          <mxGeometry relative="1" as="geometry" />
        </mxCell>
        <mxCell id="IstfAL_K2qUrRpmHLglD-2" value="Acceso Servicio al cliente" style="rounded=0;whiteSpace=wrap;html=1;" vertex="1" parent="1">
          <mxGeometry x="90" y="80" width="120" height="60" as="geometry" />
        </mxCell>
        <mxCell id="IstfAL_K2qUrRpmHLglD-13" value="" style="edgeStyle=orthogonalEdgeStyle;rounded=0;orthogonalLoop=1;jettySize=auto;html=1;" edge="1" parent="1" source="IstfAL_K2qUrRpmHLglD-4" target="IstfAL_K2qUrRpmHLglD-12">
          <mxGeometry relative="1" as="geometry" />
        </mxCell>
        <mxCell id="IstfAL_K2qUrRpmHLglD-17" value="" style="edgeStyle=orthogonalEdgeStyle;rounded=0;orthogonalLoop=1;jettySize=auto;html=1;" edge="1" parent="1" source="IstfAL_K2qUrRpmHLglD-4" target="IstfAL_K2qUrRpmHLglD-16">
          <mxGeometry relative="1" as="geometry" />
        </mxCell>
        <mxCell id="IstfAL_K2qUrRpmHLglD-4" value="Acceso Terapeutas" style="rounded=0;whiteSpace=wrap;html=1;" vertex="1" parent="1">
          <mxGeometry x="490" y="80" width="120" height="60" as="geometry" />
        </mxCell>
        <mxCell id="IstfAL_K2qUrRpmHLglD-9" value="" style="edgeStyle=orthogonalEdgeStyle;rounded=0;orthogonalLoop=1;jettySize=auto;html=1;" edge="1" parent="1" source="IstfAL_K2qUrRpmHLglD-6" target="IstfAL_K2qUrRpmHLglD-8">
          <mxGeometry relative="1" as="geometry" />
        </mxCell>
        <mxCell id="IstfAL_K2qUrRpmHLglD-11" value="" style="edgeStyle=orthogonalEdgeStyle;rounded=0;orthogonalLoop=1;jettySize=auto;html=1;" edge="1" parent="1" source="IstfAL_K2qUrRpmHLglD-6" target="IstfAL_K2qUrRpmHLglD-10">
          <mxGeometry relative="1" as="geometry" />
        </mxCell>
        <mxCell id="IstfAL_K2qUrRpmHLglD-6" value="Informacion" style="rhombus;whiteSpace=wrap;html=1;rounded=0;" vertex="1" parent="1">
          <mxGeometry x="110" y="210" width="80" height="80" as="geometry" />
        </mxCell>
        <mxCell id="IstfAL_K2qUrRpmHLglD-21" value="" style="edgeStyle=orthogonalEdgeStyle;rounded=0;orthogonalLoop=1;jettySize=auto;html=1;" edge="1" parent="1" source="IstfAL_K2qUrRpmHLglD-8" target="IstfAL_K2qUrRpmHLglD-20">
          <mxGeometry relative="1" as="geometry" />
        </mxCell>
        <mxCell id="IstfAL_K2qUrRpmHLglD-23" value="" style="edgeStyle=orthogonalEdgeStyle;rounded=0;orthogonalLoop=1;jettySize=auto;html=1;" edge="1" parent="1" source="IstfAL_K2qUrRpmHLglD-8" target="IstfAL_K2qUrRpmHLglD-22">
          <mxGeometry relative="1" as="geometry" />
        </mxCell>
        <mxCell id="IstfAL_K2qUrRpmHLglD-8" value="Medicos y Horarios" style="whiteSpace=wrap;html=1;rounded=0;" vertex="1" parent="1">
          <mxGeometry x="-70" y="220" width="120" height="60" as="geometry" />
        </mxCell>
        <mxCell id="IstfAL_K2qUrRpmHLglD-10" value="Servicios" style="whiteSpace=wrap;html=1;rounded=0;" vertex="1" parent="1">
          <mxGeometry x="90" y="380" width="120" height="60" as="geometry" />
        </mxCell>
        <mxCell id="IstfAL_K2qUrRpmHLglD-15" value="" style="edgeStyle=orthogonalEdgeStyle;rounded=0;orthogonalLoop=1;jettySize=auto;html=1;" edge="1" parent="1" source="IstfAL_K2qUrRpmHLglD-12" target="IstfAL_K2qUrRpmHLglD-14">
          <mxGeometry relative="1" as="geometry" />
        </mxCell>
        <mxCell id="IstfAL_K2qUrRpmHLglD-12" value="Cliente Nuevo" style="rounded=0;whiteSpace=wrap;html=1;" vertex="1" parent="1">
          <mxGeometry x="690" y="80" width="120" height="60" as="geometry" />
        </mxCell>
        <mxCell id="IstfAL_K2qUrRpmHLglD-14" value="Empezar desde cero" style="rounded=0;whiteSpace=wrap;html=1;" vertex="1" parent="1">
          <mxGeometry x="690" y="220" width="120" height="60" as="geometry" />
        </mxCell>
        <mxCell id="IstfAL_K2qUrRpmHLglD-19" value="" style="edgeStyle=orthogonalEdgeStyle;rounded=0;orthogonalLoop=1;jettySize=auto;html=1;" edge="1" parent="1" source="IstfAL_K2qUrRpmHLglD-16" target="IstfAL_K2qUrRpmHLglD-18">
          <mxGeometry relative="1" as="geometry" />
        </mxCell>
        <mxCell id="IstfAL_K2qUrRpmHLglD-24" value="" style="edgeStyle=orthogonalEdgeStyle;rounded=0;orthogonalLoop=1;jettySize=auto;html=1;" edge="1" parent="1" source="IstfAL_K2qUrRpmHLglD-16" target="IstfAL_K2qUrRpmHLglD-18">
          <mxGeometry relative="1" as="geometry" />
        </mxCell>
        <mxCell id="IstfAL_K2qUrRpmHLglD-16" value="Cliente existente" style="rounded=0;whiteSpace=wrap;html=1;" vertex="1" parent="1">
          <mxGeometry x="490" y="220" width="120" height="60" as="geometry" />
        </mxCell>
        <mxCell id="IstfAL_K2qUrRpmHLglD-26" value="" style="edgeStyle=orthogonalEdgeStyle;rounded=0;orthogonalLoop=1;jettySize=auto;html=1;" edge="1" parent="1" source="IstfAL_K2qUrRpmHLglD-18" target="IstfAL_K2qUrRpmHLglD-25">
          <mxGeometry relative="1" as="geometry" />
        </mxCell>
        <mxCell id="IstfAL_K2qUrRpmHLglD-18" value="Ver expediente" style="rounded=0;whiteSpace=wrap;html=1;" vertex="1" parent="1">
          <mxGeometry x="490" y="360" width="120" height="60" as="geometry" />
        </mxCell>
        <mxCell id="IstfAL_K2qUrRpmHLglD-20" value="Medicos y Especialidades" style="whiteSpace=wrap;html=1;rounded=0;" vertex="1" parent="1">
          <mxGeometry x="-270" y="220" width="120" height="60" as="geometry" />
        </mxCell>
        <mxCell id="IstfAL_K2qUrRpmHLglD-22" value="Horarios y horas disponibles" style="whiteSpace=wrap;html=1;rounded=0;" vertex="1" parent="1">
          <mxGeometry x="-70" y="360" width="120" height="60" as="geometry" />
        </mxCell>
        <mxCell id="IstfAL_K2qUrRpmHLglD-25" value="Agregar informacion en una linea nueva, en vez de sobreescribir" style="rounded=0;whiteSpace=wrap;html=1;" vertex="1" parent="1">
          <mxGeometry x="490" y="500" width="120" height="60" as="geometry" />
        </mxCell>
      </root>
    </mxGraphModel>
  </diagram>
</mxfile>
